# xmcd CD database file
# Copyright (C) 1997 Ti Kan
# 
# Track frame offsets:
#     182
#     12852
#     27675
#     47485
#     64640
#     85767
#     102817
#     118695
#     138215
#     150640
# 
# Disc length: 2129 seconds
# 
# Revision: 2
# Processed by: cddbd v1.4b41PL1 Copyright (c) Steve Scherf et al.
# Submitted via: DiscPlay 4.0.3
# 
DISCID=75084f0a
DTITLE=Gladys Knight And The Pips - Greatest Hits
DYEAR=1900
DGENRE=
TTITLE0=I Heard It Through The Grapeine
TTITLE1=If I Were Your Woman
TTITLE2=Neither One Of Us (Wants To Be The First To Say Goodbye)
TTITLE3=Friendship Train
TTITLE4=Midnight Train To Georgia
TTITLE5=You're The Best Thing That Ever Happened To Me
TTITLE6=I've Got To Use My Imagination
TTITLE7=On And On
TTITLE8=Letter Full Of Tears
TTITLE9=Every Beat Of My Heart
EXTD=
EXTT0=
EXTT1=
EXTT2=
EXTT3=
EXTT4=
EXTT5=
EXTT6=
EXTT7=
EXTT8=
EXTT9=
PLAYORDER=
